<svg width="107" height="25" viewBox="0 0 107 25" fill="none" xmlns="http://www.w3.org/2000/svg">
<path fill-rule="evenodd" clip-rule="evenodd" d="M16.2692 3.68191V0H0.613281V24.3774H16.5119V20.6955H5.29444V13.7679H15.801V10.086H5.29444V3.68191H16.2692ZM44.9949 3.77269H44.6469L38.1918 10.6332V11.3297H40.7321V19.113C40.7321 20.8195 41.2454 22.1718 42.2719 23.1701C43.2985 24.1684 44.7281 24.6676 46.5609 24.6676C47.918 24.6676 49.3679 24.3251 50.9107 23.6403V20.21C49.6115 20.9297 48.4632 21.2896 47.4656 21.2896C46.7 21.2896 46.0969 21.0632 45.6561 20.6105C45.2153 20.1578 44.9949 19.5658 44.9949 18.8344V11.3297H50.5627V8.09097H44.9949V3.77269ZM66.1649 10.1265C64.7718 8.59944 62.8796 7.83594 60.4881 7.83594C58.0734 7.83594 56.1144 8.6168 54.611 10.1785C53.1076 11.7403 52.356 13.7532 52.356 16.2172C52.356 18.7739 53.1686 20.8214 54.7939 22.36C56.4191 23.8987 58.5145 24.6679 61.0802 24.6679C63.7967 24.6679 66.1069 23.997 68.0108 22.655V19.4795C67.0008 20.1968 66.0227 20.7318 65.0766 21.0846C64.1304 21.4375 63.1466 21.6139 62.125 21.6139C60.5345 21.6139 59.2837 21.2235 58.3723 20.4426C57.461 19.6617 56.9183 18.5483 56.7442 17.1022H68.2546V16.4602C68.2546 13.7647 67.558 11.6535 66.1649 10.1265ZM63.1138 11.737C63.7254 12.4034 64.09 13.3278 64.2076 14.51H56.6919C56.8683 13.2698 57.2888 12.331 57.9533 11.6935C58.6179 11.056 59.497 10.7373 60.5909 10.7373C61.6612 10.7373 62.5022 11.0705 63.1138 11.737ZM85.2087 9.54746C84.1778 8.40644 82.7985 7.83594 81.0707 7.83594C80.1032 7.83594 79.2077 8.03576 78.3841 8.4354C77.5605 8.83505 76.7571 9.49822 75.9739 10.4249V8.1487H71.7236V24.3777H75.9739V13.5873C76.665 12.6838 77.2985 12.038 77.8744 11.6499C78.4503 11.2619 79.0666 11.0678 79.7231 11.0678C80.587 11.0678 81.2694 11.3748 81.7705 11.9888C82.2715 12.6027 82.5221 13.4367 82.5221 14.4909V24.3777H86.755V14.0565C86.755 12.1915 86.2396 10.6885 85.2087 9.54746ZM101.835 0V8.44571C100.54 7.99201 99.3204 7.76517 98.1771 7.76517C96.6954 7.76517 95.3158 8.12288 94.0383 8.83833C92.7608 9.55377 91.7575 10.5397 91.0283 11.7961C90.2991 13.0525 89.9345 14.4484 89.9345 15.984C89.9345 18.5782 90.7191 20.6257 92.2883 22.1264C93.8575 23.627 95.9487 24.3774 98.5621 24.3774H106.122V0H101.835ZM101.786 21.1856H99.521C96.0206 21.1856 94.2705 19.4285 94.2705 15.9143C94.2705 14.4549 94.7007 13.2758 95.5612 12.3768C96.4216 11.4778 97.5718 11.0283 99.0117 11.0283C99.9717 11.0283 100.896 11.256 101.786 11.7113V21.1856ZM31.7316 24.3774L37.0355 24.3473L23.5384 8.12579L18.2692 8.15586L24.752 15.9389L17.9572 24.3774H24.0701C24.0701 24.3774 26.8782 20.8194 27.8027 19.5554C28.003 19.8285 31.7316 24.3774 31.7316 24.3774Z" fill="#090637"/>
<path fill-rule="evenodd" clip-rule="evenodd" d="M28.4561 11.6277L31.2629 8.30371L36.5158 8.31009L31.0814 14.4096L28.4561 11.6277Z" fill="#27AEE4"/>
</svg>
